<svg width="2814" height="1106" viewBox="0 0 2814 1106" fill="none" xmlns="http://www.w3.org/2000/svg">
<g clip-path="url(#clip0_2_3)">
<circle cx="400.5" cy="318.5" r="63.5" fill="#CF7814"/>
<path fill-rule="evenodd" clip-rule="evenodd" d="M400.5 1058.02L401.057 1058.03V1058.01L558.032 1055.8C581.782 1056.91 639.748 1051.57 672.701 1007.93C691.256 992.342 732.374 943.58 748.405 873.219C764.437 802.859 761.765 758.55 758.425 745.19C756.198 729.604 743.349 692.314 728.366 658.353C711.798 620.798 687.193 579.225 676.297 560.815L676.297 560.814L676.295 560.812L676.294 560.811L676.041 560.383C666.021 540.343 652.824 509.604 692.74 465.752C771.785 378.915 784.031 284.285 784.031 284.285C784.031 284.285 788.79 253.392 786.258 233.073C783.774 213.153 770.671 184.088 770.671 184.088C770.671 184.088 752.083 137.473 702.76 106.157C632.786 61.7295 559.488 33.9231 401.057 26.0549V26L400.5 26.0273L399.943 26V26.0549C241.512 33.9231 168.214 61.7295 98.2398 106.157C48.9173 137.473 30.3287 184.088 30.3287 184.088C30.3287 184.088 17.2257 213.153 14.7425 233.073C12.2097 253.392 16.9691 284.285 16.9691 284.285C16.9691 284.285 29.2154 378.915 108.259 465.752C148.176 509.604 134.979 540.343 124.959 560.383L124.706 560.811C113.812 579.217 89.2038 620.795 72.634 658.353C57.6511 692.314 44.8016 729.604 42.575 745.19C39.2351 758.55 36.5632 802.859 52.5946 873.219C68.6261 943.58 109.744 992.342 128.299 1007.93C161.252 1051.57 219.218 1056.91 242.968 1055.8L399.943 1058.01V1058.03L400.5 1058.02ZM224.042 460.186C186.19 435.693 117.565 303.553 182.85 234.187C254.101 158.482 370.627 156.256 423.323 161.822C478.987 161.822 582.969 182.975 620.376 249.773C657.783 316.571 615.181 402.666 589.204 436.807C577.7 455.362 547.789 486.237 524.633 470.206L485.667 453.506C501.253 470.206 520.402 523.867 507.933 582.649C495.464 641.431 457.835 686.556 440.022 702.885C435.641 706.596 430.634 710.812 425.194 715.393L425.166 715.417L425.148 715.432L425.148 715.432C385.429 748.881 322.625 801.771 310.88 819.781C308.711 823.105 305.699 827.222 302.139 832.086L302.137 832.089L302.134 832.092C283.756 857.201 250.796 902.233 244.082 961.17C225.156 940.017 206.898 838.484 267.461 752.983C328.024 667.482 333.146 673.939 333.146 673.939C335.959 670.607 339.13 666.894 342.538 662.906L342.546 662.897L342.548 662.894C368.362 632.68 407.736 586.596 407.736 569.289C383.851 586.56 330.856 620.933 256.317 614.038C251.65 634.938 232.991 650.56 210.683 650.56C184.859 650.56 163.924 629.625 163.924 603.801C163.924 577.977 184.859 557.043 210.683 557.043C230.091 557.043 246.738 568.868 253.811 585.706C261.198 582.675 268.451 579.085 275.254 574.856C303.583 557.246 322.148 545.231 330.102 540.083C331.401 539.243 332.416 538.586 333.146 538.117C335.684 535.578 338.354 532.985 341.085 530.333C365.897 506.232 395.73 477.255 377.677 440.147C363.576 439.033 320.231 441.705 259.668 474.659C259.073 474.711 258.464 474.771 257.84 474.834C249.509 475.664 238.542 476.757 224.042 460.186ZM473.421 708.451L454.495 729.604C448.186 738.139 439.354 760.331 454.495 780.816C469.636 801.3 482.327 824.234 486.781 833.141C498.656 854.293 517.953 898.825 521.293 917.751C523.519 927.029 527.973 945.584 526.859 958.943C527.349 958.688 527.821 958.451 528.279 958.221C536.498 954.095 540.163 952.254 559.145 892.145C561 877.672 556.918 817.554 537.992 776.362C522.541 742.733 511.239 727.367 505.504 719.569C504.134 717.706 503.082 716.276 502.367 715.131C498.656 709.193 485.667 696.205 485.667 696.205L473.421 708.451Z" fill="#CF7814"/>
<path d="M1073.55 729.737C1053.48 729.737 1035.49 726.479 1019.59 719.963C1003.69 713.447 990.921 703.803 981.277 691.031C971.894 678.26 966.942 662.882 966.421 644.897H1037.58C1038.62 655.062 1042.14 662.882 1048.13 668.355C1054.13 673.568 1061.95 676.174 1071.59 676.174C1081.49 676.174 1089.31 673.959 1095.05 669.528C1100.78 664.836 1103.65 658.451 1103.65 650.371C1103.65 643.594 1101.3 637.99 1096.61 633.559C1092.18 629.128 1086.58 625.479 1079.8 622.612C1073.28 619.745 1063.9 616.487 1051.65 612.838C1033.93 607.365 1019.46 601.891 1008.25 596.417C997.046 590.944 987.402 582.864 979.322 572.178C971.242 561.491 967.202 547.547 967.202 530.344C967.202 504.801 976.455 484.862 994.961 470.527C1013.47 455.93 1037.58 448.632 1067.29 448.632C1097.52 448.632 1121.89 455.93 1140.4 470.527C1158.91 484.862 1168.81 504.932 1170.11 530.735H1097.79C1097.26 521.873 1094.01 514.966 1088.01 510.014C1082.02 504.801 1074.33 502.195 1064.94 502.195C1056.86 502.195 1050.35 504.41 1045.4 508.841C1040.44 513.011 1037.97 519.137 1037.97 527.217C1037.97 536.078 1042.14 542.985 1050.48 547.938C1058.82 552.89 1071.85 558.233 1089.57 563.967C1107.3 569.962 1121.63 575.696 1132.58 581.17C1143.79 586.643 1153.43 594.593 1161.51 605.019C1169.59 615.444 1173.63 628.868 1173.63 645.288C1173.63 660.927 1169.59 675.132 1161.51 687.903C1153.69 700.675 1142.22 710.84 1127.11 718.399C1111.99 725.957 1094.14 729.737 1073.55 729.737ZM1423.94 540.9C1423.94 556.8 1420.29 571.396 1412.99 584.688C1405.7 597.721 1394.49 608.277 1379.37 616.357C1364.25 624.437 1345.49 628.477 1323.07 628.477H1281.63V727H1214.78V452.542H1323.07C1344.97 452.542 1363.47 456.321 1378.59 463.88C1393.71 471.439 1405.05 481.865 1412.6 495.157C1420.16 508.45 1423.94 523.698 1423.94 540.9ZM1317.99 575.305C1330.76 575.305 1340.28 572.308 1346.53 566.313C1352.79 560.318 1355.91 551.847 1355.91 540.9C1355.91 529.953 1352.79 521.482 1346.53 515.488C1340.28 509.493 1330.76 506.495 1317.99 506.495H1281.63V575.305H1317.99ZM1588.55 729.737C1562.74 729.737 1539.03 723.742 1517.39 711.752C1496.02 699.763 1478.95 683.082 1466.18 661.709C1453.66 640.075 1447.41 615.835 1447.41 588.989C1447.41 562.143 1453.66 538.033 1466.18 516.66C1478.95 495.288 1496.02 478.606 1517.39 466.617C1539.03 454.627 1562.74 448.632 1588.55 448.632C1614.35 448.632 1637.94 454.627 1659.31 466.617C1680.95 478.606 1697.89 495.288 1710.14 516.66C1722.65 538.033 1728.9 562.143 1728.9 588.989C1728.9 615.835 1722.65 640.075 1710.14 661.709C1697.63 683.082 1680.69 699.763 1659.31 711.752C1637.94 723.742 1614.35 729.737 1588.55 729.737ZM1588.55 668.746C1610.44 668.746 1627.9 661.448 1640.94 646.852C1654.23 632.256 1660.88 612.968 1660.88 588.989C1660.88 564.749 1654.23 545.462 1640.94 531.126C1627.9 516.53 1610.44 509.232 1588.55 509.232C1566.39 509.232 1548.67 516.4 1535.38 530.735C1522.34 545.071 1515.83 564.489 1515.83 588.989C1515.83 613.229 1522.34 632.647 1535.38 647.243C1548.67 661.578 1566.39 668.746 1588.55 668.746ZM1906.06 727L1848.98 623.394H1832.95V727H1766.1V452.542H1878.31C1899.94 452.542 1918.31 456.321 1933.43 463.88C1948.81 471.439 1960.28 481.865 1967.84 495.157C1975.39 508.19 1979.17 522.786 1979.17 538.946C1979.17 557.191 1973.96 573.481 1963.54 587.816C1953.37 602.152 1938.25 612.317 1918.18 618.312L1981.52 727H1906.06ZM1832.95 576.087H1874.4C1886.65 576.087 1895.77 573.09 1901.76 567.095C1908.02 561.1 1911.15 552.629 1911.15 541.682C1911.15 531.257 1908.02 523.046 1901.76 517.051C1895.77 511.057 1886.65 508.059 1874.4 508.059H1832.95V576.087ZM2218.58 452.542V506.104H2145.86V727H2079V506.104H2006.29V452.542H2218.58ZM2318.99 452.542V727H2252.13V452.542H2318.99ZM2546.11 452.542V506.104H2434.29V563.967H2517.96V615.966H2434.29V727H2367.44V452.542H2546.11ZM2816.61 452.542L2721.6 636.296V727H2654.75V636.296L2559.74 452.542H2635.59L2688.76 567.486L2741.54 452.542H2816.61Z" fill="white"/>
</g>
<defs>
<clipPath id="clip0_2_3">
<rect width="2814" height="1106" fill="white"/>
</clipPath>
</defs>
</svg>
